<svg width="120" height="49" fill="none" xmlns="http://www.w3.org/2000/svg"><g clip-path="url(#clip0_80153:872)"><rect x=".867" width="119" height="48.251" rx="2.445" fill="#fff"/><path d="M15.952 29.644c.219 0 .403.079.552.236l1.563 1.67a7.43 7.43 0 01-2.878 2.234c-1.139.508-2.497.762-4.074.762-1.428 0-2.711-.241-3.85-.723a8.405 8.405 0 01-2.905-2.037c-.797-.867-1.41-1.897-1.84-3.088-.429-1.192-.644-2.493-.644-3.904 0-.946.101-1.844.303-2.694.21-.858.512-1.647.906-2.365a9.243 9.243 0 011.42-1.945 8.579 8.579 0 011.892-1.472 8.773 8.773 0 012.287-.933 10.397 10.397 0 012.655-.329c.7 0 1.362.061 1.984.184a9.541 9.541 0 011.761.513 7.64 7.64 0 011.498.801 7.96 7.96 0 011.249 1.012l-1.327 1.814c-.08.114-.18.215-.303.302-.122.088-.289.132-.499.132-.21 0-.425-.075-.644-.224-.21-.149-.473-.315-.788-.5a5.505 5.505 0 00-1.17-.499c-.464-.149-1.056-.223-1.774-.223-.798 0-1.53.144-2.195.434-.666.289-1.24.71-1.722 1.261-.473.543-.84 1.214-1.104 2.01-.263.798-.394 1.705-.394 2.721 0 1.026.14 1.941.42 2.747.29.797.68 1.472 1.17 2.024a5.08 5.08 0 001.735 1.262 5.43 5.43 0 002.129.42c.447 0 .85-.022 1.21-.066a4.908 4.908 0 001.011-.223c.316-.105.609-.24.88-.407.281-.167.561-.377.842-.631.096-.079.197-.145.302-.197a.753.753 0 01.342-.08zm7.47-7.53a7.22 7.22 0 01.788-.618 5.09 5.09 0 01.88-.487c.316-.14.648-.245.999-.315a5.39 5.39 0 011.157-.118c.735 0 1.388.127 1.958.38a3.96 3.96 0 011.432 1.065c.394.456.688 1 .88 1.63.202.63.303 1.323.303 2.076v8.609h-3.614v-8.608c0-.754-.175-1.337-.526-1.748-.35-.421-.867-.631-1.55-.631-.509 0-.986.11-1.433.328a4.939 4.939 0 00-1.275.92v9.739h-3.627V14.74h3.627v7.372zM41.79 28.67c-.885.044-1.621.123-2.208.237-.587.105-1.056.245-1.406.42-.342.176-.587.377-.736.605-.14.219-.21.46-.21.723 0 .526.144.898.433 1.117.298.219.71.328 1.236.328.604 0 1.125-.105 1.563-.315.447-.219.89-.556 1.328-1.012V28.67zm-7.386-6.006a8.014 8.014 0 012.642-1.603c.963-.36 2.006-.539 3.127-.539.806 0 1.525.132 2.156.394a4.5 4.5 0 011.616 1.104 4.686 4.686 0 011.025 1.67 6.17 6.17 0 01.355 2.129v8.516H43.67c-.342 0-.604-.049-.788-.145-.176-.096-.32-.298-.434-.605l-.29-.867a12.2 12.2 0 01-.998.789c-.316.227-.644.42-.986.578-.341.149-.71.263-1.104.342a6.576 6.576 0 01-1.3.118 5.306 5.306 0 01-1.63-.237 3.666 3.666 0 01-1.275-.696 3.197 3.197 0 01-.815-1.17c-.193-.464-.29-.999-.29-1.603 0-.5.128-.999.382-1.498.254-.5.688-.951 1.301-1.354.622-.412 1.446-.75 2.47-1.012 1.035-.272 2.327-.425 3.878-.46v-.696c0-.85-.18-1.473-.54-1.867-.358-.403-.875-.604-1.55-.604-.5 0-.915.061-1.248.184a5.539 5.539 0 00-.88.38c-.246.132-.478.26-.697.382-.22.114-.473.17-.763.17-.254 0-.468-.06-.644-.183a1.906 1.906 0 01-.42-.46l-.644-1.157zm17.485-1.879v13.55h-3.627v-13.55h3.627zm.433-3.85c0 .306-.06.59-.184.854a2.31 2.31 0 01-.499.696c-.202.202-.443.36-.723.473a2.249 2.249 0 01-.88.171c-.298 0-.583-.057-.855-.17a2.23 2.23 0 01-.696-.474A2.431 2.431 0 0148 17.79a2.125 2.125 0 01-.171-.855c0-.306.057-.591.17-.854.123-.271.285-.508.487-.71a2.23 2.23 0 01.696-.473 2.19 2.19 0 01.855-.17c.315 0 .609.056.88.17.28.114.521.272.723.473.21.202.377.438.5.71.122.263.183.548.183.854zm6.026 5.427a9.11 9.11 0 01.842-.723 6.01 6.01 0 01.933-.565 5.26 5.26 0 011.064-.368 5.622 5.622 0 011.249-.131c.736 0 1.388.127 1.958.38a3.96 3.96 0 011.432 1.065c.395.456.688 1 .88 1.63.202.63.303 1.323.303 2.076v8.609h-3.614v-8.608c0-.754-.175-1.337-.526-1.748-.35-.421-.867-.631-1.55-.631-.509 0-.986.11-1.433.328a4.939 4.939 0 00-1.275.92v9.739h-3.627v-13.55h2.234c.456 0 .758.21.907.63l.224.947zM69.386 32.43c0-.29.052-.56.157-.815a2.04 2.04 0 01.46-.67 2.04 2.04 0 01.67-.447 2.13 2.13 0 01.855-.17c.298 0 .578.056.841.17.263.105.49.254.683.447.193.184.342.407.447.67.114.254.171.526.171.815a2 2 0 01-.17.828 2.045 2.045 0 01-.448.67c-.192.184-.42.329-.683.434a2.244 2.244 0 01-.841.158 2.28 2.28 0 01-.854-.158 2.153 2.153 0 01-.67-.434 2.227 2.227 0 01-.46-.67 2.145 2.145 0 01-.158-.828z" fill="#2D41BC"/><mask id="a" fill="#fff"><path d="M197.265 8.329c0 .008-.219-.008-.644-.049-.465-.049-1.084-.106-1.858-.188a53.94 53.94 0 00-3.031-.253c-.606-.04-1.251-.081-1.947-.13-.697-.016-1.432-.04-2.219-.065a91.745 91.745 0 00-11.402.391 94.062 94.062 0 00-14.562 2.505c-5.185 1.33-10.628 3.207-15.697 5.867-5.146 2.612-7.844 5.745-12.268 9.523-4.463 3.746-10.37 9.616-16.703 12.929-3.134 1.656-6.379 2.803-10.339 3.782-3.96.963-9.006 1.653-13.34 1.261-4.36-.334-9.321-1.53-12.907-2.933-3.56-1.453-6.758-4.008-9.544-5.893-5.624-3.762-8.853-8.567-13.16-12.385-4.257-3.836-8.746-7.336-13.995-9.858-2.593-1.28-5.418-2.203-8.216-2.954-2.825-.718-5.688-1.158-8.436-1.436-5.533-.522-10.666-.22-14.987.408a57.152 57.152 0 00-10.603 2.595c-2.682 1.028-4.63 1.967-5.855 2.66-.58.335-1.045.604-1.393.8-.323.18-.49.27-.504.261-.012-.008.142-.106.44-.302.334-.212.773-.49 1.34-.84 1.2-.726 3.122-1.698 5.805-2.767a55.937 55.937 0 0110.666-2.717c4.36-.66 9.558-1.004 15.194-.498 2.8.27 5.714.702 8.603 1.428 2.851.751 5.766 1.698 8.41 2.987 5.366 2.546 9.919 6.08 14.214 9.923 4.334 3.835 8.422 8.078 13.969 11.774a51.315 51.315 0 009.338 4.978c3.508 1.37 7.416 2.472 11.62 2.79 4.18.376 8.423-.024 12.267-.954a45.89 45.89 0 0010.409-3.974c6.217-3.248 10.757-7.32 15.245-11.065 2.245-1.877 4.463-3.704 6.811-5.386 1.186-.832 2.347-1.656 3.624-2.39l1.87-1.11c.632-.351 1.29-.677 1.935-1.02 5.159-2.677 10.68-4.562 15.929-5.875a93.724 93.724 0 0114.73-2.448 91.05 91.05 0 0111.479-.302c.787.032 1.535.057 2.232.09.696.057 1.341.106 1.947.155 1.213.09 2.219.187 3.031.301.774.107 1.393.18 1.845.245.451.098.657.13.657.139z"/></mask><path d="M197.265 8.329c0 .008-.219-.008-.644-.049-.465-.049-1.084-.106-1.858-.188a53.94 53.94 0 00-3.031-.253c-.606-.04-1.251-.081-1.947-.13-.697-.016-1.432-.04-2.219-.065a91.745 91.745 0 00-11.402.391 94.062 94.062 0 00-14.562 2.505c-5.185 1.33-10.628 3.207-15.697 5.867-5.146 2.612-7.844 5.745-12.268 9.523-4.463 3.746-10.37 9.616-16.703 12.929-3.134 1.656-6.379 2.803-10.339 3.782-3.96.963-9.006 1.653-13.34 1.261-4.36-.334-9.321-1.53-12.907-2.933-3.56-1.453-6.758-4.008-9.544-5.893-5.624-3.762-8.853-8.567-13.16-12.385-4.257-3.836-8.746-7.336-13.995-9.858-2.593-1.28-5.418-2.203-8.216-2.954-2.825-.718-5.688-1.158-8.436-1.436-5.533-.522-10.666-.22-14.987.408a57.152 57.152 0 00-10.603 2.595c-2.682 1.028-4.63 1.967-5.855 2.66-.58.335-1.045.604-1.393.8-.323.18-.49.27-.504.261-.012-.008.142-.106.44-.302.334-.212.773-.49 1.34-.84 1.2-.726 3.122-1.698 5.805-2.767a55.937 55.937 0 0110.666-2.717c4.36-.66 9.558-1.004 15.194-.498 2.8.27 5.714.702 8.603 1.428 2.851.751 5.766 1.698 8.41 2.987 5.366 2.546 9.919 6.08 14.214 9.923 4.334 3.835 8.422 8.078 13.969 11.774a51.315 51.315 0 009.338 4.978c3.508 1.37 7.416 2.472 11.62 2.79 4.18.376 8.423-.024 12.267-.954a45.89 45.89 0 0010.409-3.974c6.217-3.248 10.757-7.32 15.245-11.065 2.245-1.877 4.463-3.704 6.811-5.386 1.186-.832 2.347-1.656 3.624-2.39l1.87-1.11c.632-.351 1.29-.677 1.935-1.02 5.159-2.677 10.68-4.562 15.929-5.875a93.724 93.724 0 0114.73-2.448 91.05 91.05 0 0111.479-.302c.787.032 1.535.057 2.232.09.696.057 1.341.106 1.947.155 1.213.09 2.219.187 3.031.301.774.107 1.393.18 1.845.245.451.098.657.13.657.139z" fill="#2D41BC"/><path d="M196.621 8.28l-.277 2.625.012.002h.013l.252-2.627zm-1.858-.188l-.316 2.621.02.002.019.002.277-2.625zm-3.031-.253l-.177 2.634h.008l.008.001.161-2.635zm-1.947-.13l.185-2.633-.062-.005-.062-.001-.061 2.639zm-2.219-.065l.082-2.639h-.006l-.076 2.639zm-11.402.391l.244 2.629.009-.001-.253-2.628zm-14.562 2.505l-.654-2.557h-.002l.656 2.557zm-15.697 5.867l1.194 2.354.017-.008.016-.008-1.227-2.338zm-12.268 9.523l1.697 2.022.009-.007.008-.008-1.714-2.007zm-16.703 12.93l-1.223-2.34-.01.006 1.233 2.334zm-10.339 3.782l.624 2.565.009-.002-.633-2.563zm-13.34 1.261l.238-2.629-.018-.001-.018-.002-.202 2.632zM80.348 40.97l-.997 2.444.017.007.018.007.962-2.458zm-9.544-5.893l1.479-2.187-.012-.007-1.467 2.194zM57.644 22.69l-1.768 1.96.008.008.008.007 1.751-1.975zm-13.995-9.858l-1.17 2.367.014.006.013.007 1.143-2.38zM35.433 9.88l.684-2.55-.017-.004-.017-.004-.65 2.558zm-8.436-1.436l.265-2.626h-.008l-.009-.002-.248 2.628zm-14.987.408l-.38-2.612h-.004l.384 2.612zM1.407 11.446l-.87-2.492-.037.013-.037.014.944 2.465zm-5.855 2.66l-1.3-2.297-.01.005-.009.005 1.319 2.287zm-1.393.8l1.284 2.306.01-.005-1.294-2.301zm-.504.261l-1.472 2.192.058.038.059.036 1.355-2.266zm.44-.302l-1.412-2.23-.022.013-.021.014 1.454 2.203zm1.34-.84l-1.367-2.258-.01.006-.01.007 1.388 2.245zm5.805-2.767l-.903-2.48-.038.014-.036.014.977 2.453zm10.666-2.717l-.395-2.61-.007.001.402 2.61zM27.1 8.043l.253-2.627h-.008l-.009-.002-.236 2.63zm8.603 1.428l.673-2.552-.015-.004-.014-.004-.644 2.56zm8.41 2.987l-1.157 2.373.013.006.012.006 1.132-2.385zm14.214 9.923l-1.76 1.967.005.005.005.004 1.75-1.976zm13.969 11.774l1.48-2.185-.008-.006-.009-.005-1.463 2.196zm9.338 4.978l-1 2.443.02.008.019.008.96-2.459zm11.62 2.79l.237-2.628-.018-.002-.019-.001-.2 2.632zm12.267-.954l.621 2.566.01-.003-.631-2.563zm10.409-3.974l-1.222-2.34-.008.005 1.23 2.335zm15.245-11.065l1.692 2.027.002-.002-1.694-2.025zm6.811-5.386l-1.516-2.16-.011.007-.01.007 1.537 2.146zm3.624-2.39l1.316 2.288.016-.01.016-.009-1.348-2.27zm1.87-1.11l-1.281-2.308-.033.018-.032.02 1.346 2.27zm1.935-1.02l-1.216-2.343-.011.006-.012.006 1.239 2.33zm15.929-5.875l.641 2.56h.002l-.643-2.56zm14.73-2.448l.226 2.63h.005l-.231-2.63zm11.479-.302l.11-2.638h-.007l-.103 2.638zm2.232.09L190 4.858l-.046-.004-.046-.002-.123 2.637zm1.947.155l-.212 2.63.008.001.009.001.195-2.632zm3.031.301l-.367 2.614.009.002.358-2.615zm1.845.245l.559-2.58-.09-.019-.092-.013-.377 2.612zm-1.982.139a2.635 2.635 0 012.153-2.594c.195-.036.35-.04.378-.042.095-.003.165 0 .166 0 .025 0 .024.001-.022-.002a24.238 24.238 0 01-.429-.039l-.503 5.256c.218.02.4.037.535.047.062.005.143.01.222.013.028.001.119.005.228 0 .034 0 .194-.006.393-.043.074-.014.349-.065.668-.22.112-.053 1.49-.707 1.49-2.376h-5.279zm2.271-2.674c-.243-.026-.525-.053-.829-.083-.309-.03-.65-.065-1.028-.105l-.554 5.25c.396.042.751.078 1.062.108l.796.08.553-5.25zm-1.818-.183a56.496 56.496 0 00-3.186-.267l-.322 5.27c1.18.071 2.14.15 2.876.238l.632-5.241zm-3.17-.266c-.621-.042-1.246-.082-1.939-.13l-.371 5.266c.7.05 1.365.091 1.956.131l.354-5.267zm-2.063-.136c-.683-.016-1.402-.04-2.198-.065l-.164 5.277c.778.024 1.529.05 2.239.066l.123-5.278zm-2.204-.065a94.394 94.394 0 00-11.731.403l.506 5.255a89.11 89.11 0 0111.074-.38l.151-5.278zm-11.722.402a96.691 96.691 0 00-14.972 2.576l1.308 5.115a91.445 91.445 0 0114.152-2.434l-.488-5.257zm-14.974 2.577c-5.324 1.365-10.971 3.306-16.268 6.086l2.454 4.675c4.841-2.54 10.08-4.353 15.126-5.648l-1.312-5.113zm-16.235 6.07c-5.52 2.8-8.658 6.341-12.788 9.869l3.428 4.014c4.718-4.028 6.976-6.754 11.748-9.176l-2.388-4.707zm-12.771 9.854c-4.731 3.97-10.234 9.476-16.229 12.612l2.447 4.677c6.671-3.49 12.981-9.725 17.176-13.245l-3.394-4.044zm-16.239 12.617c-2.897 1.53-5.929 2.611-9.74 3.554l1.267 5.125c4.109-1.016 7.568-2.23 10.94-4.012l-2.467-4.667zm-9.73 3.552c-3.798.923-8.535 1.553-12.478 1.196l-.476 5.258c4.724.427 10.08-.322 14.202-1.325l-1.248-5.13zM93.457 41.27c-4.091-.314-8.797-1.448-12.147-2.759l-1.924 4.916c3.822 1.496 9.039 2.752 13.667 3.107l.404-5.264zm-12.112-2.745c-3.222-1.315-6.026-3.581-9.062-5.635l-2.958 4.372c2.535 1.716 6.128 4.56 10.026 6.151l1.994-4.888zm-9.074-5.643c-2.573-1.721-4.63-3.7-6.63-5.799-1.944-2.039-3.982-4.36-6.247-6.368l-3.502 3.95c2.044 1.812 3.774 3.803 5.928 6.061 2.096 2.2 4.466 4.503 7.516 6.544l2.935-4.388zM59.411 20.73c-4.34-3.91-9.044-7.598-14.62-10.276l-2.285 4.759c4.923 2.365 9.197 5.678 13.37 9.439l3.534-3.922zM44.817 10.467c-2.812-1.39-5.822-2.365-8.701-3.137l-1.368 5.099c2.718.73 5.357 1.598 7.73 2.77l2.34-4.732zM36.083 7.32c-2.984-.758-5.982-1.217-8.82-1.504l-.531 5.252c2.656.269 5.385.691 8.05 1.369l1.301-5.117zm-8.838-1.506c-5.776-.545-11.123-.23-15.615.424l.76 5.224c4.15-.603 9.07-.891 14.36-.392l.495-5.256zm-15.619.425A59.79 59.79 0 00.537 8.954l1.74 4.984a54.504 54.504 0 0110.116-2.475l-.767-5.223zM.463 8.98c-2.776 1.064-4.848 2.056-6.212 2.828l2.6 4.595c1.088-.616 2.911-1.5 5.501-2.493L.462 8.98zm-6.23 2.838c-.592.342-1.036.6-1.368.786l2.587 4.602c.365-.205.85-.486 1.418-.814l-2.637-4.574zm-1.358.78a10.51 10.51 0 01-.307.168c-.031.017-.003.001.054-.024a2.597 2.597 0 011.266-.204c.224.019.657.085 1.122.363l-2.71 4.53c.821.492 1.619.363 1.682.355a2.69 2.69 0 00.783-.22 4.45 4.45 0 00.248-.12c.12-.063.27-.146.43-.235L-7.125 12.6zm2.251.377a2.638 2.638 0 01.941 3.26c-.192.431-.456.7-.495.742-.148.156-.283.256-.288.26-.055.042-.09.064-.051.038l.315-.208-2.908-4.406-.355.235a4.276 4.276 0 00-.216.153c-.023.018-.17.128-.325.292-.042.045-.31.317-.502.752a2.642 2.642 0 00.941 3.265l2.943-4.383zm.38 4.12c.334-.212.762-.483 1.318-.826l-2.777-4.49c-.58.358-1.028.642-1.364.854l2.822 4.462zm1.297-.813c1.043-.632 2.827-1.542 5.414-2.572L.263 8.806c-2.779 1.107-4.839 2.14-6.195 2.96l2.735 4.517zm5.34-2.544a53.306 53.306 0 0110.166-2.59l-.805-5.217A58.582 58.582 0 00.337 8.778l1.806 4.96zm10.16-2.588c4.189-.635 9.172-.962 14.561-.479l.472-5.258c-5.883-.528-11.296-.17-15.825.517l.791 5.22zm14.545-.48c2.708.26 5.486.675 8.212 1.36l1.287-5.12c-3.052-.767-6.104-1.217-8.994-1.495l-.505 5.255zm8.183 1.353c2.764.728 5.497 1.623 7.925 2.807l2.314-4.746c-2.86-1.394-5.958-2.393-8.894-3.166l-1.345 5.105zm7.95 2.819c5.038 2.39 9.373 5.735 13.586 9.505l3.52-3.934c-4.378-3.918-9.148-7.639-14.842-10.34l-2.264 4.769zm13.596 9.514c4.148 3.67 8.508 8.165 14.255 11.995l2.927-4.393c-5.346-3.563-9.163-7.555-13.683-11.555l-3.498 3.953zM70.815 36.34a53.962 53.962 0 009.819 5.235l2-4.886a48.678 48.678 0 01-8.858-4.72l-2.96 4.371zm9.858 5.25c3.675 1.437 7.846 2.621 12.383 2.965l.398-5.264c-3.873-.294-7.518-1.312-10.86-2.618l-1.921 4.918zm12.346 2.962c4.493.403 9.027-.027 13.123-1.018l-1.242-5.131c-3.591.869-7.545 1.238-11.409.89l-.472 5.259zm13.133-1.02a48.516 48.516 0 0011.008-4.203l-2.46-4.67a43.25 43.25 0 01-9.81 3.746l1.262 5.126zm11-4.198c6.526-3.41 11.31-7.703 15.715-11.378l-3.383-4.054c-4.572 3.816-8.868 7.666-14.776 10.753l2.444 4.679zm15.717-11.38c2.243-1.875 4.394-3.647 6.653-5.264l-3.073-4.293c-2.436 1.745-4.721 3.63-6.967 5.507l3.387 4.05zm6.632-5.25c1.214-.85 2.271-1.6 3.425-2.263l-2.632-4.576c-1.4.805-2.664 1.704-3.824 2.518l3.031 4.322zm3.457-2.282l1.869-1.109-2.693-4.54-1.872 1.11 2.696 4.54zm1.804-1.071c.618-.344 1.144-.6 1.892-.997l-2.478-4.662c-.542.288-1.332.685-1.977 1.043l2.563 4.616zm1.869-.985c4.933-2.56 10.25-4.38 15.354-5.658l-1.282-5.121c-5.395 1.35-11.118 3.3-16.504 6.093l2.432 4.686zm15.356-5.658A91.104 91.104 0 01176.3 10.33l-.453-5.26a96.36 96.36 0 00-15.146 2.518l1.286 5.12zm14.318-2.379c4.33-.38 8.1-.412 11.146-.294l.205-5.275a93.704 93.704 0 00-11.814.31l.463 5.26zm11.139-.294c.824.034 1.523.057 2.217.09l.247-5.274c-.699-.033-1.497-.06-2.245-.09l-.219 5.274zm2.125.083c.686.057 1.373.109 1.951.156l.425-5.263c-.635-.05-1.238-.096-1.945-.154l-.431 5.261zm1.968.157a45.45 45.45 0 012.859.283l.735-5.227a50.484 50.484 0 00-3.204-.32l-.39 5.264zm2.868.285c.869.119 1.358.174 1.825.242l.755-5.225c-.436-.063-1.185-.155-1.863-.248l-.717 5.23zm1.643.209c.249.054.432.09.544.113l.074.014-.035-.008a1.751 1.751 0 01-.101-.026c-.024-.007-.161-.045-.327-.118a2.649 2.649 0 01-1.077-.87 2.64 2.64 0 01-.5-1.546h5.279a2.643 2.643 0 00-1.582-2.42c-.169-.074-.311-.113-.342-.122a3.101 3.101 0 00-.194-.049l-.168-.034c-.103-.02-.249-.05-.452-.093l-1.119 5.159z" fill="#2D41BC" mask="url(#a)"/><ellipse cx="50.436" cy="17.515" rx="2.666" ry="2.559" fill="#fff"/><path d="M50.847 15.28c-.025-.115.9.025 1.256 1.22.152.56.152 1.348-.419 2.035-.558.7-1.674.852-2.51.445-.85-.369-1.484-1.297-1.332-2.187.127-.865.723-1.399 1.243-1.653 1.128-.534 1.85.063 1.75.127-.039.127-.685-.114-1.433.407-.355.254-.71.7-.749 1.208-.05.496.305 1.03.888 1.297.583.254 1.217.178 1.56-.19.355-.357.456-.929.406-1.361-.115-.903-.736-1.221-.66-1.348z" fill="#2D41BC"/><circle cx="111.545" cy="39.664" r="2.985" fill="#fff"/><path d="M111.984 36.957c0-.05.202-.127.596-.064.38.064.925.318 1.369.878.444.534.774 1.5.368 2.467-.393.928-1.382 1.653-2.562 1.653-1.23 0-2.13-.992-2.384-1.895-.304-.94-.012-1.92.495-2.429 1.04-1.042 2.016-.877 1.991-.8.051.14-.824.266-1.509 1.194-.33.446-.457 1.107-.216 1.78.241.662.863 1.272 1.636 1.272.774.013 1.522-.508 1.813-1.106.305-.61.153-1.297-.139-1.767-.596-.992-1.484-1.043-1.458-1.183z" fill="#2D41BC"/></g><defs><clipPath id="clip0_80153:872"><path fill="#fff" transform="translate(.867)" d="M0 0h118.67v48.251H0z"/></clipPath></defs></svg>