<svg xmlns="http://www.w3.org/2000/svg" width="24" height="24" fill="none"><path fill="#fff" d="M9.214 10.126H22.07a.215.215 0 0 0 .214-.214v-1.5a.215.215 0 0 0-.214-.215H9.214a.215.215 0 0 0-.215.215v1.5c0 .117.097.214.215.214Zm-.215 5.464c0 .118.097.214.215.214H22.07a.215.215 0 0 0 .214-.214v-1.5a.215.215 0 0 0-.214-.214H9.214a.215.215 0 0 0-.215.214v1.5ZM22.5 2.572h-21a.215.215 0 0 0-.214.215v1.5c0 .117.097.214.214.214h21a.215.215 0 0 0 .215-.214v-1.5a.215.215 0 0 0-.215-.215Zm0 16.929h-21a.215.215 0 0 0-.214.214v1.5c0 .118.097.214.214.214h21a.215.215 0 0 0 .215-.214v-1.5a.215.215 0 0 0-.215-.214ZM1.376 12.186l4.187 3.297a.238.238 0 0 0 .386-.185V8.704a.237.237 0 0 0-.386-.185l-4.187 3.297a.234.234 0 0 0 0 .37Z"/></svg>