<svg width="86" height="68" fill="none" xmlns="http://www.w3.org/2000/svg"><path fill-rule="evenodd" clip-rule="evenodd" d="M.377 57.38c12.824-5.9 19.237-12.833 19.237-20.799-5.466-.59-9.987-2.68-13.56-6.269C2.478 26.723.692 22.568.692 17.848c0-5.015 1.734-9.243 5.203-12.685C9.365 1.72 13.727 0 18.983 0c5.886 0 10.985 2.237 15.295 6.712 4.31 4.474 6.464 9.907 6.464 16.299C40.742 42.187 29.285 57.183 6.37 68L.377 57.38zm45.258 0c12.93-5.9 19.394-12.833 19.394-20.799-5.571-.59-10.144-2.68-13.718-6.269s-5.36-7.744-5.36-12.464c0-5.015 1.76-9.243 5.281-12.685C54.754 1.72 59.142 0 64.398 0c5.887 0 10.959 2.237 15.216 6.712C83.871 11.186 86 16.619 86 23.01 86 42.187 74.595 57.183 51.784 68l-6.15-10.62z" fill="#7300B9"/></svg>