<svg width="24" height="24" fill="none" xmlns="http://www.w3.org/2000/svg"><path d="M11.907 14.625a2.625 2.625 0 002.615-2.853l-2.844 2.843c.076.007.151.01.229.01zM20.595 3.88l-1-1a.187.187 0 00-.266 0l-2.562 2.563C15.353 4.721 13.765 4.359 12 4.359c-4.504 0-7.865 2.347-10.082 7.039a1.413 1.413 0 000 1.207c.886 1.866 1.952 3.362 3.2 4.487l-2.48 2.478a.187.187 0 000 .265l1.001 1.001a.188.188 0 00.265 0l16.691-16.69a.189.189 0 00.041-.205.19.19 0 00-.04-.06zM7.782 12a4.125 4.125 0 016.067-3.64L12.71 9.5a2.627 2.627 0 00-3.302 3.303l-1.14 1.14A4.104 4.104 0 017.782 12z" fill="#2D41BC"/><path d="M22.083 11.395c-.825-1.737-1.807-3.154-2.946-4.25l-3.379 3.379a4.127 4.127 0 01-5.329 5.329l-2.865 2.865c1.33.615 2.808.923 4.436.923 4.504 0 7.865-2.346 10.083-7.039a1.413 1.413 0 000-1.207z" fill="#2D41BC"/></svg>